<?xml version="1.0" encoding="UTF-8" standalone="no"?>
<svg
   version="1.1"
   viewBox="-1 0 40 40"
   id="svg52"
   sodipodi:docname="potential-marker.svg"
   width="40"
   height="40"
   inkscape:version="1.2.2 (b0a8486541, 2022-12-01)"
   xmlns:inkscape="http://www.inkscape.org/namespaces/inkscape"
   xmlns:sodipodi="http://sodipodi.sourceforge.net/DTD/sodipodi-0.dtd"
   xmlns="http://www.w3.org/2000/svg"
   xmlns:svg="http://www.w3.org/2000/svg">
  <defs
     id="defs56" />
  <sodipodi:namedview
     id="namedview54"
     pagecolor="#ffffff"
     bordercolor="#666666"
     borderopacity="1.0"
     inkscape:showpageshadow="2"
     inkscape:pageopacity="0.0"
     inkscape:pagecheckerboard="0"
     inkscape:deskcolor="#d1d1d1"
     showgrid="false"
     inkscape:zoom="11.313708"
     inkscape:cx="16.08668"
     inkscape:cy="11.932427"
     inkscape:window-width="1912"
     inkscape:window-height="2080"
     inkscape:window-x="1920"
     inkscape:window-y="0"
     inkscape:window-maximized="1"
     inkscape:current-layer="svg52" />
  <g
     id="g3505"
     transform="matrix(0.18977733,0,0,0.18977733,5.9528086,28.824646)">
    <path
       d="M 34.1745,5.41 C 18.2705,-6.01 8.7755001,-24.61 8.7755001,-44.36 8.7750925,-69.616 23.7385,-91.885 46.8975,-101.09 c 1.203,-0.478 2.426,-0.919 3.667,-1.319 l 0.633,2.024 c -1.198,0.385 -2.378,0.811 -3.539,1.273 -22.352,8.884 -36.793,30.375 -36.793,54.752 -4e-4,19.06 9.164,37.02 24.515,48.03 z"
       id="path3323" />
    <path
       d="m 68.7515,16.54 c -2.692,0 -5.386,-0.18 -8.009,-0.54 l 0.278,-2.1 c 2.53,0.34 5.131,0.52 7.731,0.52 31.918,0 57.883,-26.37 57.883,-58.78 0,-6.873 -1.16,-13.609 -3.44,-20.02 l 1.96,-0.724 c 2.37,6.645 3.57,13.624 3.57,20.744 0,33.58 -26.901,60.9 -59.973,60.9"
       id="path3325" />
    <polygon
       points="62.49,0 38.342,62.062 63.422,62.067 26.08,158.08 104.77,54.213 76.62,54.229 106.66,0 "
       id="polygon3327"
       transform="translate(8.7745001,-125.54)" />
  </g>
</svg>
