<svg version="1.2" xmlns="http://www.w3.org/2000/svg" viewBox="0 0 926 658" width="926" height="658"><defs><linearGradient id="P" gradientUnits="userSpaceOnUse"/><linearGradient id="g1" x2="1" href="#P" gradientTransform="matrix(0,606.531,-926.053,0,463,25.735)"><stop stop-color="#5e5e5e"/><stop offset="1" stop-color="#2b2b2b"/></linearGradient><radialGradient id="g2" cx="0" cy="0" r="1" href="#P" gradientTransform="matrix(51.5,0,0,51.5,748.856,593.549)"><stop stop-color="#fff"/><stop offset="1" stop-color="#8e00ff"/></radialGradient><radialGradient id="g3" cx="0" cy="0" r="1" href="#P" gradientTransform="matrix(51.5,0,0,51.5,748.856,488.054)"><stop stop-color="#fff"/><stop offset="1" stop-color="#021383"/></radialGradient><radialGradient id="g4" cx="0" cy="0" r="1" href="#P" gradientTransform="matrix(51.5,0,0,51.5,748.856,385.054)"><stop stop-color="#fff"/><stop offset="1" stop-color="#087b07"/></radialGradient><radialGradient id="g5" cx="0" cy="0" r="1" href="#P" gradientTransform="matrix(51.5,0,0,51.5,748.856,279.592)"><stop stop-color="#fff"/><stop offset="1" stop-color="#ffe000"/></radialGradient><radialGradient id="g6" cx="0" cy="0" r="1" href="#P" gradientTransform="matrix(51.5,0,0,51.5,748.856,166.501)"><stop stop-color="#fff"/><stop offset="1" stop-color="#ffa000"/></radialGradient><radialGradient id="g7" cx="0" cy="0" r="1" href="#P" gradientTransform="matrix(51.5,0,0,51.5,748.856,40.165)"><stop stop-color="#fff"/><stop offset="1" stop-color="#ff0400"/></radialGradient><linearGradient id="g8" x2="1" href="#P" gradientTransform="matrix(219.135,0,0,16,52,450.326)"><stop stop-color="#fff" stop-opacity="0"/><stop offset=".5" stop-color="#fff" stop-opacity="1"/><stop offset="1" stop-color="#fff" stop-opacity="1"/></linearGradient><radialGradient id="g9" cx="0" cy="0" r="1" href="#P" gradientTransform="matrix(15.162,0,0,15.162,247.12,432.179)"><stop stop-color="#fff"/><stop offset="1"/></radialGradient><radialGradient id="g10" cx="0" cy="0" r="1" href="#P" gradientTransform="matrix(15.162,0,0,15.162,253.269,466.529)"><stop stop-color="#fff"/><stop offset="1"/></radialGradient><radialGradient id="g11" cx="0" cy="0" r="1" href="#P" gradientTransform="matrix(15.162,0,0,15.162,287.837,471.295)"><stop stop-color="#fff"/><stop offset="1"/></radialGradient><radialGradient id="g12" cx="0" cy="0" r="1" href="#P" gradientTransform="matrix(15.162,0,0,15.162,303.053,439.892)"><stop stop-color="#fff"/><stop offset="1"/></radialGradient><radialGradient id="g13" cx="0" cy="0" r="1" href="#P" gradientTransform="matrix(15.162,0,0,15.162,277.888,415.717)"><stop stop-color="#fff"/><stop offset="1"/></radialGradient></defs><style>.a{fill:url(#g1)}.b{fill:#c882ff}.c{fill:#8494fd}.d{fill:#93f892}.e{fill:#fff39d}.f{fill:#ffd48a}.g{fill:#ff8582}.h{fill:url(#g2)}.i{fill:url(#g3)}.j{fill:url(#g4)}.k{fill:url(#g5)}.l{fill:url(#g6)}.m{fill:url(#g7)}.n{fill:url(#g8)}.o{fill:#fff}.p{fill:url(#g9)}.q{fill:url(#g10)}.r{fill:url(#g11)}.s{fill:url(#g12)}.t{fill:url(#g13)}</style><path fill-rule="evenodd" class="a" d="m703.5 632.3c122.9 0 222.5-99.7 222.5-222.5 0-122.9-99.6-222.5-222.5-222.5q-11.4 0-22.5 1.1c-57.7-117.5-186.7-181.9-315.2-157.5-128.5 24.4-224.9 131.6-235.5 262-84.3 21.2-139.7 102-129 188.3 10.7 86.3 84.1 151.1 171 151.1z"/><g style="opacity:.9"><path class="b" d="m271.1 448.7l479.5 106.7-32 97.3z"/><path class="c" d="m271.1 448.7h468.6l-11 101.8z"/><path class="d" d="m271.1 448.7h468.6l-11-101.8z"/><path class="e" d="m271.1 448.7l446.8-203.6 33.5 96.8z"/><path class="f" d="m271.1 448.7l438.6-311.9 51.5 88.7z"/><path class="g" d="m271.1 448.7l431.9-432.5 66.9 77.8z"/></g><path class="h" d="m791.2 605.7c0 28.4-23.1 51.5-51.5 51.5-28.5 0-51.5-23.1-51.5-51.5 0-28.5 23-51.5 51.5-51.5 28.4 0 51.5 23 51.5 51.5z"/><path class="i" d="m791.2 500.2c0 28.4-23.1 51.5-51.5 51.5-28.5 0-51.5-23.1-51.5-51.5 0-28.4 23-51.5 51.5-51.5 28.4 0 51.5 23.1 51.5 51.5z"/><path class="j" d="m791.2 397.2c0 28.4-23.1 51.5-51.5 51.5-28.5 0-51.5-23.1-51.5-51.5 0-28.4 23-51.5 51.5-51.5 28.4 0 51.5 23.1 51.5 51.5z"/><path class="k" d="m791.2 291.7c0 28.5-23.1 51.5-51.5 51.5-28.5 0-51.5-23-51.5-51.5 0-28.4 23-51.5 51.5-51.5 28.4 0 51.5 23.1 51.5 51.5z"/><path class="l" d="m791.2 178.6c0 28.5-23.1 51.5-51.5 51.5-28.5 0-51.5-23-51.5-51.5 0-28.4 23-51.5 51.5-51.5 28.4 0 51.5 23.1 51.5 51.5z"/><path class="m" d="m791.2 52.3c0 28.5-23.1 51.5-51.5 51.5-28.5 0-51.5-23-51.5-51.5 0-28.4 23-51.5 51.5-51.5 28.4 0 51.5 23.1 51.5 51.5z"/><path class="n" d="m52 441h219.1v16h-219.1z"/><path class="o" d="m271.1 291.3l136.4 236.1h-272.7z"/><path class="p" d="m259.6 435.8c0 8.3-6.8 15.1-15.2 15.1-8.4 0-15.1-6.8-15.1-15.1 0-8.4 6.7-15.2 15.1-15.2 8.4 0 15.2 6.8 15.2 15.2z"/><path class="q" d="m265.7 470.1c0 8.4-6.8 15.2-15.1 15.2-8.4 0-15.2-6.8-15.2-15.2 0-8.4 6.8-15.2 15.2-15.2 8.3 0 15.1 6.8 15.1 15.2z"/><path class="r" d="m300.3 474.9c0 8.3-6.8 15.1-15.2 15.1-8.3 0-15.1-6.8-15.1-15.1 0-8.4 6.8-15.2 15.1-15.2 8.4 0 15.2 6.8 15.2 15.2z"/><path class="s" d="m315.5 443.5c0 8.3-6.8 15.1-15.1 15.1-8.4 0-15.2-6.8-15.2-15.1 0-8.4 6.8-15.2 15.2-15.2 8.3 0 15.1 6.8 15.1 15.2z"/><path class="t" d="m290.4 419.3c0 8.4-6.8 15.2-15.2 15.2-8.4 0-15.2-6.8-15.2-15.2 0-8.4 6.8-15.2 15.2-15.2 8.4 0 15.2 6.8 15.2 15.2z"/></svg>