<?xml version="1.0" standalone="no"?>
<!DOCTYPE svg PUBLIC "-//W3C//DTD SVG 20010904//EN"
  "http://www.w3.org/TR/2001/REC-SVG-20010904/DTD/svg10.dtd">
<svg height="512.000000pt" preserveAspectRatio="xMidYMid meet"
     version="1.0" viewBox="0 0 512.000000 512.000000" width="512.000000pt"
     xmlns="http://www.w3.org/2000/svg">
  <metadata>
    Created by potrace 1.14, written by Peter Selinger 2001-2017
  </metadata>
  <g fill="#000000"
     stroke="none" transform="translate(0.000000,512.000000) scale(0.100000,-0.100000)">
    <path d="M290 5104 c-30 -8 -73 -26 -96 -39 -61 -36 -139 -126 -166 -193 l-23
-57 0 -2260 0 -2260 29 -63 c37 -81 131 -171 213 -204 l58 -23 2255 0 2255 0
60 24 c83 33 183 133 216 216 l24 60 0 2255 0 2255 -24 60 c-33 83 -133 183
-216 216 l-60 24 -2235 2 c-1944 2 -2242 0 -2290 -13z m4120 -604 c60 -30 85
-73 85 -145 0 -72 -25 -115 -85 -145 -51 -26 -95 -25 -150 3 -50 25 -90 88
-90 142 0 17 10 51 23 75 40 81 135 112 217 70z m-436 -112 c-20 -55 -20 -161
0 -217 33 -92 121 -176 210 -201 25 -7 78 -11 120 -8 41 2 73 2 72 1 -2 -2
-63 -47 -137 -99 -74 -53 -125 -93 -114 -89 86 33 104 37 175 33 59 -4 87 -11
129 -33 187 -102 222 -354 71 -505 -29 -29 -82 -61 -164 -101 l-121 -58 62 0
c127 -2 230 -66 285 -179 29 -58 33 -76 32 -142 0 -88 -22 -146 -80 -209 -54
-60 -104 -86 -228 -115 -135 -33 -181 -53 -229 -102 -121 -122 -129 -310 -17
-437 35 -39 89 -73 170 -106 17 -6 -369 -10 -1208 -10 l-1233 -1 27 -48 26
-47 262 -58 c316 -70 1564 -347 1589 -353 28 -6 60 -14 82 -19 11 -2 31 -6 45
-10 14 -3 35 -7 48 -10 12 -3 32 -7 45 -10 27 -6 65 -14 92 -21 11 -2 47 -10
80 -18 33 -7 92 -22 130 -32 l70 -18 -46 -7 c-145 -21 -260 -156 -261 -306 -1
-99 13 -142 78 -231 l17 -23 -34 16 c-321 148 -2115 962 -2117 960 -2 -2 8
-24 23 -49 l27 -46 -581 0 c-320 0 -581 3 -581 7 0 3 38 72 85 153 47 81 85
150 85 153 0 4 -142 7 -315 7 -273 0 -315 2 -315 15 0 17 -27 16 369 24 l294
6 186 322 c102 177 189 319 192 315 4 -4 59 -97 122 -207 63 -110 119 -201
124 -202 4 -2 539 528 1188 1177 649 649 1181 1180 1182 1180 1 0 -5 -19 -13
-42z m434 -1993 c149 -63 166 -264 29 -349 -161 -99 -354 67 -282 242 42 100
155 148 253 107z m22 -720 c115 -110 -12 -297 -155 -229 -50 23 -75 66 -75
129 0 57 16 87 64 116 47 30 126 22 166 -16z m-12 -625 c98 -60 96 -210 -4
-267 -135 -78 -288 70 -215 207 40 77 145 105 219 60z"/>
    <path d="M1342 1990 c-44 -41 -16 -110 43 -110 61 0 85 61 40 105 -29 30 -54
32 -83 5z m76 -32 c-3 -25 -17 -32 -37 -19 -19 12 -6 41 19 41 16 0 21 -5 18
-22z"/>
    <path d="M1210 1920 c-41 -41 -14 -110 43 -110 32 0 67 32 67 60 0 27 -43 70
-70 70 -11 0 -29 -9 -40 -20z m78 -33 c4 -20 -25 -34 -40 -19 -15 15 -1 44 19
40 10 -2 19 -11 21 -21z"/>
    <path d="M1447 1882 c-33 -36 -16 -92 33 -107 41 -13 86 34 74 80 -11 45 -76
61 -107 27z m81 -25 c4 -20 -25 -34 -40 -19 -15 15 -1 44 19 40 10 -2 19 -11
21 -21z"/>
    <path d="M1231 1764 c-12 -15 -21 -32 -21 -39 0 -7 9 -24 21 -39 40 -50 109
-24 109 42 0 59 -72 83 -109 36z m79 -9 c10 -12 10 -18 0 -29 -14 -18 -40 -10
-40 13 0 32 20 40 40 16z"/>
    <path d="M1382 1747 c-27 -29 -28 -57 -2 -85 39 -42 110 -17 110 39 0 61 -67
90 -108 46z m78 -27 c0 -27 -19 -35 -38 -17 -12 13 -13 19 -3 31 16 19 41 10
41 -14z"/>
  </g>
</svg>
