<?xml version="1.0" standalone="no"?>
<!DOCTYPE svg PUBLIC "-//W3C//DTD SVG 20010904//EN"
 "http://www.w3.org/TR/2001/REC-SVG-20010904/DTD/svg10.dtd">
<svg version="1.0" xmlns="http://www.w3.org/2000/svg"
 width="926.000000pt" height="926.000000pt" viewBox="0 0 926.000000 926.000000"
 preserveAspectRatio="xMidYMid meet">
<metadata>
Created by potrace 1.14, written by Peter Selinger 2001-2017
</metadata>
<g transform="translate(0.000000,926.000000) scale(0.100000,-0.100000)"
fill="#000000" stroke="none">
<path d="M7378 7915 c-1 -1 -25 -6 -53 -9 -80 -11 -157 -42 -230 -92 -25 -17
-235 -224 -236 -233 0 -3 -25 -27 -55 -53 -30 -27 -52 -48 -49 -48 3 0 -17
-19 -44 -42 -27 -24 -50 -46 -50 -49 -1 -10 -144 -149 -153 -149 -5 0 -8 -6
-8 -12 -1 -7 -19 -26 -40 -43 -21 -16 -39 -33 -40 -37 0 -12 -130 -135 -136
-129 -4 3 -4 -5 -1 -18 4 -17 3 -21 -5 -13 -7 7 -18 1 -37 -21 -14 -17 -25
-35 -23 -40 1 -5 -2 -6 -7 -3 -5 3 -14 -1 -21 -9 -17 -21 -29 -19 -54 8 -17
18 -127 108 -206 170 -40 30 -109 77 -115 77 -3 0 -15 8 -26 18 -10 11 -32 25
-47 32 -15 8 -34 19 -42 26 -8 6 -40 24 -70 40 -30 16 -58 33 -61 37 -3 5 -9
8 -13 8 -3 -1 -36 14 -74 33 -37 18 -96 46 -132 60 -36 15 -74 31 -85 36 -55
26 -270 96 -325 106 -14 3 -38 9 -55 14 -16 5 -55 14 -85 19 -30 6 -66 14 -80
16 -50 10 -77 15 -111 19 -105 13 -141 17 -212 21 -43 2 -82 7 -87 10 -6 4
-10 2 -10 -4 0 -6 -9 -8 -22 -3 -27 9 -155 9 -164 0 -3 -4 -16 -3 -29 2 -13 5
-26 6 -29 3 -3 -4 -30 -7 -58 -9 -58 -3 -152 -12 -183 -18 -11 -2 -45 -7 -75
-12 -30 -4 -57 -8 -60 -9 -3 -1 -25 -5 -50 -9 -25 -4 -59 -12 -76 -17 -17 -5
-42 -12 -55 -14 -57 -11 -85 -18 -94 -23 -5 -4 -14 -7 -20 -8 -60 -9 -356
-121 -439 -166 -28 -15 -207 -109 -237 -125 -15 -7 -32 -20 -39 -28 -7 -8 -16
-15 -21 -15 -9 0 -176 -112 -204 -137 -11 -10 -38 -31 -60 -48 -111 -82 -308
-275 -407 -397 -18 -22 -38 -45 -43 -52 -6 -6 -24 -29 -40 -51 -29 -39 -36
-48 -62 -79 -7 -8 -13 -20 -13 -26 0 -5 -4 -10 -10 -10 -5 0 -10 -6 -10 -13 0
-8 -9 -22 -20 -32 -11 -10 -20 -24 -20 -32 0 -7 -4 -13 -10 -13 -5 0 -10 -7
-10 -15 0 -8 -3 -15 -8 -15 -4 0 -15 -17 -25 -37 -9 -21 -28 -56 -42 -78 -64
-105 -194 -395 -221 -495 -2 -8 -20 -69 -40 -135 -20 -66 -37 -129 -38 -140
-1 -11 -6 -33 -9 -50 -4 -16 -10 -41 -12 -55 -9 -43 -34 -213 -38 -255 -4 -53
-10 -61 -49 -69 -18 -3 -37 -7 -43 -9 -5 -2 -17 -6 -25 -9 -8 -3 -37 -14 -65
-23 -138 -48 -314 -145 -450 -249 -67 -50 -244 -220 -280 -267 -6 -8 -32 -42
-58 -76 -26 -34 -47 -64 -47 -68 0 -3 -11 -21 -25 -39 -14 -18 -25 -38 -25
-44 0 -6 -4 -12 -8 -14 -8 -3 -92 -168 -92 -180 0 -3 -9 -26 -20 -52 -12 -25
-21 -48 -20 -51 0 -3 -6 -21 -14 -40 -13 -31 -52 -193 -71 -295 -10 -54 -14
-368 -5 -430 18 -125 22 -148 37 -205 8 -33 17 -69 19 -80 2 -11 16 -51 30
-90 14 -38 29 -80 31 -92 3 -13 9 -23 14 -23 5 0 9 -7 9 -16 0 -30 158 -304
181 -312 5 -2 9 -8 9 -14 0 -22 179 -216 276 -298 201 -171 493 -314 744 -364
74 -14 127 -24 140 -24 8 -1 40 -4 70 -8 30 -3 1209 -7 2620 -8 l2565 -1 73
-37 c40 -21 75 -37 77 -37 3 0 18 -7 33 -15 15 -8 36 -16 47 -18 11 -1 22 -6
25 -9 8 -10 172 -86 224 -103 69 -24 152 -33 216 -24 56 8 95 15 95 18 0 1 8
3 19 5 10 2 23 8 29 14 6 6 17 11 25 11 22 0 103 60 155 114 48 51 127 196
127 235 0 15 22 31 93 65 127 63 180 93 266 151 40 28 81 55 89 60 9 6 21 15
28 20 6 6 28 24 48 40 76 61 107 88 158 139 86 86 178 186 178 196 0 4 3 10 8
12 13 5 84 98 75 98 -4 0 -3 4 3 8 19 13 87 116 120 182 10 19 21 37 24 40 17
14 143 303 155 355 2 6 12 41 24 79 12 38 23 81 26 95 3 14 9 41 14 60 6 18
10 36 9 40 0 3 1 8 2 11 3 8 9 41 15 85 4 22 8 54 11 70 13 82 11 427 -2 530
-18 134 -19 142 -28 180 -3 17 -8 39 -11 50 -20 99 -98 336 -121 373 -8 12
-12 22 -9 22 11 0 -121 240 -183 334 -37 55 -71 107 -77 115 -5 9 -12 18 -15
21 -3 3 -29 34 -59 70 -68 81 -210 223 -276 275 -27 22 -56 47 -65 55 -64 62
-359 235 -492 289 -51 21 -56 25 -47 43 50 93 62 263 27 371 -60 187 -210 322
-392 356 -72 13 -203 7 -250 -13 -20 -8 -36 -12 -36 -9 0 3 -11 -2 -25 -11
-37 -25 -43 -19 -7 7 17 13 28 28 24 32 -4 5 -1 5 5 1 12 -6 74 29 81 47 2 4
8 7 13 7 8 0 35 20 64 48 8 6 16 12 19 12 8 0 108 70 121 84 6 6 50 38 99 71
126 86 127 86 164 125 47 50 89 119 114 187 29 77 34 228 12 305 -61 203 -237
356 -433 374 -31 3 -61 7 -68 9 -6 2 -13 2 -15 0z m-643 -615 c3 -6 -1 -7 -9
-4 -18 7 -21 14 -7 14 6 0 13 -4 16 -10z m-165 -80 c0 -5 -4 -10 -10 -10 -5 0
-10 5 -10 10 0 6 5 10 10 10 6 0 10 -4 10 -10z m-129 -133 c-10 -9 -11 -8 -5
6 3 10 9 15 12 12 3 -3 0 -11 -7 -18z m169 -141 c0 -2 -7 -7 -16 -10 -8 -3
-12 -2 -9 4 6 10 25 14 25 6z m365 -46 c-3 -5 -12 -10 -18 -10 -7 0 -6 4 3 10
19 12 23 12 15 0z m66 -7 c13 -16 12 -17 -3 -4 -10 7 -18 15 -18 17 0 8 8 3
21 -13z m-716 -32 c3 -5 2 -12 -3 -15 -5 -3 -9 1 -9 9 0 17 3 19 12 6z m1036
-8 c13 -16 12 -17 -3 -4 -10 7 -18 15 -18 17 0 8 8 3 21 -13z m-598 -68 c-3
-9 -8 -14 -10 -11 -3 3 -2 9 2 15 9 16 15 13 8 -4z m362 -53 c-3 -3 -11 0 -18
7 -9 10 -8 11 6 5 10 -3 15 -9 12 -12z m-630 -72 c3 -6 -1 -7 -9 -4 -18 7 -21
14 -7 14 6 0 13 -4 16 -10z m355 -119 c0 -6 -4 -12 -8 -15 -5 -3 -9 1 -9 9 0
8 4 15 9 15 4 0 8 -4 8 -9z m-2 -86 c-3 -3 -9 2 -12 12 -6 14 -5 15 5 6 7 -7
10 -15 7 -18z m-167 -8 c-10 -9 -11 -8 -5 6 3 10 9 15 12 12 3 -3 0 -11 -7
-18z m9 -107 c0 -5 -5 -10 -11 -10 -5 0 -7 5 -4 10 3 6 8 10 11 10 2 0 4 -4 4
-10z m125 -240 c-3 -5 -12 -10 -18 -10 -7 0 -6 4 3 10 19 12 23 12 15 0z"/>
</g>
</svg>
